<?xml version="1.0" encoding="utf-8"?>
<svg xmlns="http://www.w3.org/2000/svg" viewBox="0 0 50 50" fill="#c8d1f1"><path d="M 13.300781 4 C 10.345226 4 8 6.4933333 8 9.5 L 8 42 C 8 44.209804 9.7901961 46 12 46 L 41 46 L 41 44 L 12 44 C 10.809804 44 10 43.190196 10 42 C 10 40.809804 10.809804 40 12 40 L 41 40 L 41 4 L 13.300781 4 z M 13.300781 6 L 39 6 L 39 38 L 12 38 C 11.254943 38 10.597127 38.258805 10 38.613281 L 10 9.5 C 10 7.5066667 11.456337 6 13.300781 6 z M 16.800781 11 C 15.734115 11 15 11.867057 15 12.900391 L 15 16.099609 C 15 16.549609 15.133528 17.009723 15.449219 17.382812 C 15.76491 17.755902 16.284115 18 16.800781 18 L 34.199219 18 C 35.265885 18 36 17.132943 36 16.099609 L 36 12.900391 C 36 12.450391 35.866472 11.990277 35.550781 11.617188 C 35.23509 11.244097 34.715885 11 34.199219 11 L 16.800781 11 z M 17 13 L 34 13 L 34 16 L 17 16 L 17 13 z" fill="#c8d1f1"/></svg>
