<?xml version="1.0" encoding="utf-8"?>
<svg xmlns="http://www.w3.org/2000/svg" viewBox="0 0 50 50" fill="#c8d1f1"><path d="M 9.8125 2 C 9.335938 2.089844 8.992188 2.511719 9 3 L 9 18 L 4 18 L 4 20 L 0 20 L 0 26 L 4 26 L 4 43 C 4 45.75 6.25 48 9 48 L 41 48 C 43.75 48 46 45.75 46 43 L 46 26 L 50 26 L 50 20 L 46 20 L 46 18 L 41 18 L 41 3 C 41 2.449219 40.550781 2 40 2 L 10 2 C 9.96875 2 9.9375 2 9.90625 2 C 9.875 2 9.84375 2 9.8125 2 Z M 11 4 L 39 4 L 39 18 L 30.5 18 C 28.578125 18 27 19.578125 27 21.5 C 27 23.421875 28.578125 25 30.5 25 L 33 25 C 33.566406 25 34 25.433594 34 26 C 34 26.566406 33.566406 27 33 27 L 17 27 C 16.433594 27 16 26.566406 16 26 C 16 25.433594 16.433594 25 17 25 L 19.5 25 C 21.421875 25 23 23.421875 23 21.5 C 23 19.578125 21.421875 18 19.5 18 L 11.0625 18 C 11.042969 18 11.019531 18 11 18 Z M 15.8125 8 C 15.261719 8.050781 14.855469 8.542969 14.90625 9.09375 C 14.957031 9.644531 15.449219 10.050781 16 10 L 34 10 C 34.359375 10.003906 34.695313 9.816406 34.878906 9.503906 C 35.058594 9.191406 35.058594 8.808594 34.878906 8.496094 C 34.695313 8.183594 34.359375 7.996094 34 8 L 16 8 C 15.96875 8 15.9375 8 15.90625 8 C 15.875 8 15.84375 8 15.8125 8 Z M 15.8125 12 C 15.261719 12.050781 14.855469 12.542969 14.90625 13.09375 C 14.957031 13.644531 15.449219 14.050781 16 14 L 29 14 C 29.359375 14.003906 29.695313 13.816406 29.878906 13.503906 C 30.058594 13.191406 30.058594 12.808594 29.878906 12.496094 C 29.695313 12.183594 29.359375 11.996094 29 12 L 16 12 C 15.96875 12 15.9375 12 15.90625 12 C 15.875 12 15.84375 12 15.8125 12 Z M 6 20 L 19.5 20 C 20.339844 20 21 20.660156 21 21.5 C 21 22.339844 20.339844 23 19.5 23 L 17 23 C 15.355469 23 14 24.355469 14 26 C 14 27.644531 15.355469 29 17 29 L 33 29 C 34.644531 29 36 27.644531 36 26 C 36 24.355469 34.644531 23 33 23 L 30.5 23 C 29.660156 23 29 22.339844 29 21.5 C 29 20.660156 29.660156 20 30.5 20 L 44 20 L 44 43 C 44 44.667969 42.667969 46 41 46 L 9 46 C 7.332031 46 6 44.667969 6 43 Z M 2 22 L 4 22 L 4 24 L 2 24 Z M 46 22 L 48 22 L 48 24 L 46 24 Z M 11 33 C 10.449219 33 10 33.449219 10 34 C 10 34.550781 10.449219 35 11 35 C 11.550781 35 12 34.550781 12 34 C 12 33.449219 11.550781 33 11 33 Z M 15 33 C 14.449219 33 14 33.449219 14 34 C 14 34.550781 14.449219 35 15 35 C 15.550781 35 16 34.550781 16 34 C 16 33.449219 15.550781 33 15 33 Z M 19 33 C 18.449219 33 18 33.449219 18 34 C 18 34.550781 18.449219 35 19 35 C 19.550781 35 20 34.550781 20 34 C 20 33.449219 19.550781 33 19 33 Z M 23 33 C 22.449219 33 22 33.449219 22 34 C 22 34.550781 22.449219 35 23 35 C 23.550781 35 24 34.550781 24 34 C 24 33.449219 23.550781 33 23 33 Z M 27 33 C 26.449219 33 26 33.449219 26 34 C 26 34.550781 26.449219 35 27 35 C 27.550781 35 28 34.550781 28 34 C 28 33.449219 27.550781 33 27 33 Z M 31 33 C 30.449219 33 30 33.449219 30 34 C 30 34.550781 30.449219 35 31 35 C 31.550781 35 32 34.550781 32 34 C 32 33.449219 31.550781 33 31 33 Z M 35 33 C 34.449219 33 34 33.449219 34 34 C 34 34.550781 34.449219 35 35 35 C 35.550781 35 36 34.550781 36 34 C 36 33.449219 35.550781 33 35 33 Z M 39 33 C 38.449219 33 38 33.449219 38 34 C 38 34.550781 38.449219 35 39 35 C 39.550781 35 40 34.550781 40 34 C 40 33.449219 39.550781 33 39 33 Z M 13 37 C 12.449219 37 12 37.449219 12 38 C 12 38.550781 12.449219 39 13 39 C 13.550781 39 14 38.550781 14 38 C 14 37.449219 13.550781 37 13 37 Z M 17 37 C 16.449219 37 16 37.449219 16 38 C 16 38.550781 16.449219 39 17 39 C 17.550781 39 18 38.550781 18 38 C 18 37.449219 17.550781 37 17 37 Z M 21 37 C 20.449219 37 20 37.449219 20 38 C 20 38.550781 20.449219 39 21 39 C 21.550781 39 22 38.550781 22 38 C 22 37.449219 21.550781 37 21 37 Z M 25 37 C 24.449219 37 24 37.449219 24 38 C 24 38.550781 24.449219 39 25 39 C 25.550781 39 26 38.550781 26 38 C 26 37.449219 25.550781 37 25 37 Z M 29 37 C 28.449219 37 28 37.449219 28 38 C 28 38.550781 28.449219 39 29 39 C 29.550781 39 30 38.550781 30 38 C 30 37.449219 29.550781 37 29 37 Z M 33 37 C 32.449219 37 32 37.449219 32 38 C 32 38.550781 32.449219 39 33 39 C 33.550781 39 34 38.550781 34 38 C 34 37.449219 33.550781 37 33 37 Z M 37 37 C 36.449219 37 36 37.449219 36 38 C 36 38.550781 36.449219 39 37 39 C 37.550781 39 38 38.550781 38 38 C 38 37.449219 37.550781 37 37 37 Z M 16 41 C 15.449219 41 15 41.449219 15 42 C 15 42.550781 15.449219 43 16 43 L 34 43 C 34.550781 43 35 42.550781 35 42 C 35 41.449219 34.550781 41 34 41 Z" fill="#c8d1f1"/></svg>
